<?xml version="1.0" encoding="UTF-8"?>
<svg width="68px" height="15px" viewBox="0 0 68 15" version="1.1" xmlns="http://www.w3.org/2000/svg" xmlns:xlink="http://www.w3.org/1999/xlink">
    <!-- Generator: Sketch 52.5 (67469) - http://www.bohemiancoding.com/sketch -->
    <title>github copy</title>
    <desc>Created with Sketch.</desc>
    <g id="Page-1" stroke="none" stroke-width="1" fill="none" fill-rule="evenodd">
        <g id="footer" transform="translate(-812.000000, -106.000000)" fill="#D8D8D8" fill-rule="nonzero">
            <g id="Footer" transform="translate(0.000000, 55.000000)">
                <g id="github-copy" transform="translate(812.000000, 51.000000)">
                    <g id="Group">
                        <path d="M4.75471944,12.1893877 C4.75471944,12.1015952 4.79861568,12.057699 4.88640816,12.057699 C4.97420064,12.057699 5.01809688,12.1015952 5.01809688,12.1893877 C5.01809688,12.2771802 4.97420064,12.3210764 4.88640816,12.3210764 C4.79861568,12.3210764 4.75471944,12.2771802 4.75471944,12.1893877 Z M4.15480418,12.0430669 C4.15480418,11.9552744 4.19870042,11.9113782 4.2864929,11.9113782 C4.3840401,11.9113782 4.4328137,11.9552744 4.4328137,12.0430669 C4.4328137,12.1406141 4.3840401,12.1893877 4.2864929,12.1893877 C4.19870042,12.1893877 4.15480418,12.1406141 4.15480418,12.0430669 Z M7.52018251,0.147186147 C8.53467336,0.147186147 9.48819722,0.339841861 10.3807541,0.725153288 C11.2733109,1.11046472 12.0512498,1.6347809 12.7145708,2.29810185 C13.3778917,2.96142279 13.9022079,3.7393617 14.2875194,4.63191856 C14.6728308,5.52447542 14.8654865,6.47799928 14.8654865,7.49249013 C14.8654865,8.28262244 14.7459912,9.0410519 14.5070005,9.76777853 C14.2680099,10.4945052 13.9363494,11.1578261 13.5120191,11.7577414 C13.0876888,12.3576566 12.5780047,12.8844115 11.9829668,13.338006 C11.3879289,13.7916004 10.73924,14.145209 10.0369002,14.3988317 C9.92959828,14.4183412 9.80766428,14.4232185 9.67109821,14.4134638 C9.53453213,14.4037091 9.45161702,14.3159166 9.42235286,14.1500864 C9.40284342,14.0330297 9.38577266,13.8769542 9.37114058,13.6818598 C9.35650851,13.4867654 9.34675379,13.2867937 9.34187643,13.0819446 C9.33699907,12.8770954 9.33212171,12.682001 9.32724435,12.4966614 C9.32236699,12.3113217 9.31992831,12.1747556 9.31992831,12.0869631 C9.31992831,11.9991707 9.30285755,11.8869914 9.26871604,11.7504253 C9.23457452,11.6138592 9.19555564,11.4821705 9.15165939,11.3553592 C9.10776315,11.2285478 9.06386691,11.1139298 9.01997067,11.0115053 C8.97607444,10.9090807 8.9443716,10.8432364 8.92486215,10.8139722 C8.90535271,10.7944628 8.97363575,10.7725147 9.12971126,10.7481279 C9.28578677,10.7237411 9.48331985,10.6774061 9.72231049,10.6091231 C9.96130114,10.5408401 10.2222399,10.4432929 10.5051268,10.3164815 C10.7880136,10.1896701 11.0513911,10.0214012 11.2952591,9.81167475 C11.5391271,9.60194827 11.7415375,9.3434482 11.9024904,9.03617452 C12.0634433,8.72890085 12.1439197,8.35578281 12.1439197,7.91682042 C12.1439197,7.25349948 12.1049008,6.73649933 12.026863,6.36581998 C11.9488253,5.99514063 11.8659102,5.71713112 11.7781177,5.53179144 C11.6708158,5.3171876 11.5488818,5.18062153 11.4123157,5.12209321 C11.470844,4.80018746 11.5147403,4.50754587 11.5440044,4.24416844 C11.5635139,4.01980988 11.5659525,3.80520605 11.5513205,3.60035693 C11.5366884,3.39550781 11.4757214,3.2638191 11.3684195,3.20529078 C11.2611176,3.15651719 11.1026034,3.16627191 10.8928769,3.23455494 C10.6831504,3.30283797 10.4661079,3.39063045 10.2417493,3.49793238 C9.98812662,3.62474374 9.71499447,3.78081925 9.42235287,3.96615893 C9.27603208,3.91738534 9.1150792,3.8734891 8.93949424,3.83447021 C8.78341873,3.79545134 8.59807905,3.76130981 8.38347522,3.73204565 C8.16887138,3.70278148 7.92988075,3.6881494 7.66650332,3.68814941 C7.40312589,3.68814942 7.15194185,3.7027815 6.91295121,3.73204565 C6.67396056,3.7613098 6.46179541,3.79057396 6.27645574,3.81983813 C6.0618519,3.85885701 5.86188015,3.90275325 5.67654047,3.95152685 C5.38389887,3.78569662 5.11076671,3.64425318 4.857144,3.52719654 C4.63278545,3.41989462 4.41330425,3.33210214 4.19870042,3.2638191 C3.98409658,3.19553605 3.82802106,3.18090397 3.73047386,3.21992286 C3.62317195,3.26869646 3.55732759,3.39306913 3.53294079,3.59304089 C3.50855399,3.79301265 3.50123795,4.01005516 3.51099267,4.24416844 C3.52074739,4.51730059 3.54513419,4.8196969 3.58415306,5.15135737 C3.44758699,5.29767816 3.32565299,5.47326312 3.21835108,5.67811224 C3.12080388,5.8536972 3.03545008,6.06830103 2.96228967,6.32192374 C2.88912927,6.57554646 2.85254907,6.85843333 2.85254907,7.17058437 C2.85254907,7.61930148 2.89888399,8.01436763 2.99155383,8.35578282 C3.08422367,8.69719801 3.20859635,8.99227828 3.36467186,9.24102363 C3.52074737,9.48976899 3.69877101,9.69949546 3.89874277,9.87020306 C4.09871452,10.0409107 4.30112496,10.1799154 4.50597408,10.2872173 C4.99371006,10.5408401 5.54972909,10.6871609 6.17403116,10.7261797 C6.0959934,10.8139722 6.02771036,10.8968873 5.96918205,10.9749251 C5.92040845,11.0432081 5.87651221,11.1090525 5.83749333,11.1724582 C5.79847444,11.2358638 5.77896501,11.2821988 5.77896502,11.3114629 C5.77896502,11.3407271 5.77652634,11.3773073 5.77164898,11.4212035 C5.76677161,11.4650998 5.75945557,11.5114347 5.74970086,11.5602083 L5.7204367,11.7065291 C5.6228895,11.745548 5.52046494,11.7796895 5.41316303,11.8089536 C5.32537055,11.8382178 5.22782335,11.8626046 5.12052143,11.882114 C5.01321951,11.9016235 4.90591759,11.9113782 4.79861567,11.9113782 C4.69131376,11.9113782 4.55962504,11.8552886 4.40354953,11.7431093 C4.24747402,11.63093 4.08895982,11.50168 3.92800694,11.3553592 C3.76705405,11.2090384 3.62073326,11.0651563 3.48904454,10.9237128 C3.35735583,10.7822694 3.26224731,10.6822835 3.20371898,10.6237552 C3.14519066,10.5749816 3.0671529,10.533524 2.96960571,10.4993825 C2.87205852,10.465241 2.77451133,10.4384155 2.67696412,10.4189061 C2.57941691,10.3993966 2.49162443,10.3872032 2.41358668,10.3823259 C2.33554892,10.3774485 2.28189797,10.3798872 2.2526338,10.3896419 C2.19410548,10.4189061 2.15020924,10.4603636 2.12094508,10.5140146 C2.09168092,10.5676656 2.11606772,10.6091231 2.19410547,10.6383873 C2.23312435,10.6578967 2.28921399,10.6944769 2.36237439,10.7481279 C2.43553479,10.8017788 2.51113387,10.8651845 2.58917162,10.9383449 C2.66720937,11.0115053 2.74036977,11.0846657 2.80865281,11.1578261 C2.87693585,11.2309865 2.92570945,11.2919535 2.95497361,11.3407271 C2.98423776,11.3895007 3.028134,11.4968026 3.08666233,11.6626328 C3.14519065,11.8284631 3.24029917,11.9991707 3.37198788,12.1747556 C3.5036766,12.3503406 3.67926156,12.5064161 3.89874275,12.6429822 C4.11822395,12.7795483 4.41330422,12.8478313 4.78398357,12.8478313 C5.03760628,12.8478313 5.23026199,12.8453926 5.36195071,12.8405153 C5.49363942,12.8356379 5.5936253,12.8283219 5.66190834,12.8185671 L5.66190834,13.9452373 C5.66190834,14.0037656 5.65459231,14.06961 5.63996023,14.1427704 C5.62532815,14.2159307 5.59850267,14.2793364 5.5594838,14.3329874 C5.52046492,14.3866383 5.46681396,14.4256572 5.39853092,14.450044 C5.33024788,14.4744308 5.2424554,14.4719921 5.13515348,14.442728 C5.11564404,14.4329733 5.08637988,14.4280959 5.04736099,14.4280959 C4.33526645,14.1744732 3.68170023,13.8208646 3.08666231,13.3672701 C2.4916244,12.9136757 1.97706293,12.3844821 1.54297791,11.7796895 C1.10889289,11.1748969 0.769916375,10.5091372 0.526048373,9.78241061 C0.28218037,9.05568399 0.160246374,8.29237716 0.160246384,7.49249013 C0.160246384,6.47799928 0.352902097,5.52447542 0.738213524,4.63191856 C1.12352495,3.7393617 1.64784114,2.96142279 2.31116208,2.29810185 C2.97448303,1.6347809 3.75486061,1.11046472 4.65229483,0.725153288 C5.54972905,0.339841861 6.50569159,0.147186147 7.52018245,0.147186147 Z M5.66190839,12.7307747 C5.70092726,12.7418954 5.73019143,12.7530161 5.74970087,12.7641369 C5.79847447,12.7974991 5.76921031,12.8197405 5.66190839,12.8308612 L5.66190839,12.7307747 Z M5.36926679,12.0869632 C5.36926679,11.989416 5.41316303,11.9406424 5.50095551,11.9406424 C5.58874799,11.9406424 5.63264423,11.989416 5.63264423,12.0869632 C5.63264423,12.1747557 5.58874799,12.2186519 5.50095551,12.2186519 C5.41316303,12.2186519 5.36926679,12.1747557 5.36926679,12.0869632 Z M2.7647566,10.6237552 C2.7647566,10.5652269 2.79889812,10.5359627 2.86718116,10.5359627 C2.93546421,10.5359627 2.96960573,10.5652269 2.96960573,10.6237552 C2.96960573,10.6920382 2.93546421,10.7261798 2.86718116,10.7261798 C2.79889812,10.7261798 2.7647566,10.6920382 2.7647566,10.6237552 Z M3.74510594,11.7357933 C3.74510594,11.6480008 3.78900218,11.6041045 3.87679466,11.6041045 C3.96458714,11.6041045 4.00848338,11.6480008 4.00848338,11.7357933 C4.00848338,11.8333405 3.96458714,11.8821141 3.87679466,11.8821141 C3.78900218,11.8821141 3.74510594,11.8333405 3.74510594,11.7357933 Z M3.18908692,10.8432364 C3.25736996,10.8432364 3.29151148,10.8773779 3.29151148,10.945661 C3.29151148,11.013944 3.25736996,11.0480855 3.18908692,11.0480855 C3.12080388,11.0480855 3.08666236,11.013944 3.08666236,10.945661 C3.08666236,10.8773779 3.12080388,10.8432364 3.18908692,10.8432364 Z M3.33540772,11.326095 C3.33540772,11.2383025 3.37930396,11.1944063 3.46709644,11.1944063 C3.55488892,11.1944063 3.59878516,11.2383025 3.59878516,11.326095 C3.59878516,11.4236422 3.55488892,11.4724158 3.46709644,11.4724158 C3.37930396,11.4724158 3.33540772,11.4236422 3.33540772,11.326095 Z" id="Shape"></path>
                    </g>
                    <g id="GitHub-(1)" transform="translate(18.545455, 0.000000)">
                        <path d="M9.43283044,5.66989592 L5.31297801,5.66989592 C5.21100147,5.66989592 5.11922258,5.75147716 5.11922258,5.86365135 L5.11922258,7.87258931 C5.11922258,7.97456586 5.20080382,8.06634474 5.31297801,8.06634474 L6.91400978,8.06634474 L6.91400978,10.5647701 C6.91400978,10.5647701 6.55709188,10.687142 5.55772173,10.687142 C4.38499146,10.687142 2.74316907,10.2588405 2.74316907,6.64887076 C2.74316907,3.03890107 4.45637503,2.5596113 6.0574068,2.5596113 C7.44428782,2.5596113 8.04594944,2.80435501 8.42326265,2.92672685 C8.5456345,2.96751747 8.65780871,2.84514561 8.65780871,2.73297141 L9.11670316,0.785219397 C9.11670316,0.73423113 9.09630785,0.673045192 9.04531957,0.632254583 C8.89235476,0.530278037 7.95417054,0 5.56791937,0 C2.81455266,0 0,1.17273027 0,6.79163792 C0,12.4105456 3.22245883,13.2467532 5.9452326,13.2467532 C8.19891425,13.2467532 9.56539995,12.2881737 9.56539995,12.2881737 C9.62658588,12.2575808 9.62658588,12.1759995 9.62658589,12.1454066 L9.62658589,5.86365135 C9.62658589,5.75147715 9.534807,5.66989592 9.43283044,5.66989592 Z M30.6439519,0.673045204 C30.6439519,0.571068658 30.5623706,0.47928977 30.4501965,0.479289757 L28.1353289,0.479289757 C28.0333523,0.479289757 27.9415734,0.560870999 27.9415734,0.673045204 L27.9415734,5.14981554 L24.3316037,5.14981554 L24.3316037,0.673045204 C24.3316037,0.571068658 24.2500225,0.47928977 24.1378483,0.479289757 L21.8229807,0.479289757 C21.7210042,0.479289757 21.6292253,0.560870999 21.6292253,0.673045204 L21.6292253,12.7980565 C21.6292253,12.900033 21.7108065,12.9918119 21.8229807,12.9918119 L24.1378483,12.9918119 C24.2398248,12.9918119 24.3316037,12.900033 24.3316037,12.7980565 L24.3316037,7.60745029 L27.9415734,7.60745029 L27.9313758,12.7980565 C27.9313758,12.900033 28.012957,12.9918119 28.1251312,12.9918119 L30.4501965,12.9918119 C30.552173,12.9918119 30.6439519,12.900033 30.6439519,12.7980565 L30.6439519,0.673045204 Z" id="Shape"></path>
                        <path d="M13.8076242,2.2638793 C13.8076242,1.42767163 13.134579,0.754626434 12.308569,0.754626434 C11.482559,0.754626434 10.8197115,1.42767164 10.8197115,2.2638793 C10.8197115,3.10008698 11.4927567,3.77313217 12.308569,3.77313218 C13.134579,3.77313218 13.8076242,3.10008698 13.8076242,2.2638793 Z M13.6444618,10.2384452 L13.6444618,4.63993282 C13.6444618,4.53795627 13.5628805,4.44617739 13.4507063,4.44617737 L11.1358388,4.44617737 C11.0338622,4.44617737 10.9318857,4.55835158 10.9318857,4.66032813 L10.9318857,12.6756846 C10.9318857,12.9102306 11.0746528,12.9816142 11.2684083,12.9816142 L13.3487298,12.9816142 C13.5730782,12.9816142 13.6342641,12.86944 13.6342641,12.6756846 C13.6444618,12.2473831 13.6444618,10.5647701 13.6444618,10.2384452 Z" id="Shape"></path>
                        <path d="M39.4445278,4.46657269 L37.1500555,4.46657269 C37.0480789,4.46657269 36.9563,4.55835158 36.9563,4.66032813 L36.9563,10.6055607 C36.9563,10.6055607 36.3750337,11.0338622 35.5388261,11.0338622 C34.712816,11.0338622 34.4884677,10.656549 34.4884677,9.84073663 L34.4884677,4.66032813 C34.4884677,4.55835158 34.4068864,4.46657269 34.2947122,4.46657269 L31.9594493,4.46657269 C31.8574728,4.46657269 31.7656939,4.55835158 31.7656939,4.66032813 L31.7656939,10.2384452 C31.7656939,12.6450916 33.1117843,13.2365556 34.9575598,13.2365556 C36.4770103,13.2365556 37.7007288,12.4003479 37.7007288,12.4003479 C37.7007288,12.4003479 37.7619148,12.8388471 37.7823101,12.8898353 C37.812903,12.9408236 37.874089,12.9918119 37.9556702,12.9918119 L39.4445278,12.9816142 C39.5465043,12.9816142 39.6382832,12.8898353 39.6382832,12.7878588 L39.6382832,4.65013047 C39.6382832,4.55835158 39.556702,4.46657269 39.4445278,4.46657269 Z M45.7364806,4.20143367 C44.4311808,4.20143367 43.5439849,4.78269998 43.5439849,4.78269998 L43.5439849,0.673045204 C43.5439849,0.571068658 43.4624036,0.47928977 43.3502295,0.479289757 L41.0251642,0.479289757 C40.9231877,0.479289757 40.8314088,0.560870999 40.8314088,0.673045204 L40.8314088,12.7980565 C40.8314088,12.900033 40.91299,12.9918119 41.0251642,12.9918119 L42.6363936,12.9918119 C42.7077772,12.9918119 42.7689631,12.9510213 42.7995561,12.8898353 C42.8403467,12.8286494 42.9015326,12.3289643 42.9015326,12.3289643 C42.9015326,12.3289643 43.8499145,13.2263579 45.6548994,13.2263579 C47.7658139,13.2263579 48.9793347,12.1556042 48.9793347,8.41306499 C48.9691371,4.68072343 47.0417804,4.20143366 45.7364806,4.20143367 Z M44.8288894,11.0236646 C44.0334723,11.0032692 43.4929966,10.6361537 43.4929966,10.6361537 L43.4929966,6.80183558 C43.4929966,6.80183558 44.0232746,6.47551063 44.6861222,6.41432471 C45.5121322,6.34294112 46.3075493,6.58768484 46.3075493,8.56602982 C46.2973516,10.6463513 45.9404337,11.0644552 44.8288894,11.0236646 Z M20.3035302,4.44617737 L18.5699289,4.44617737 L18.5699289,2.15170511 C18.5699289,2.05992622 18.5291383,2.0191356 18.4271618,2.0191356 L16.0613059,2.0191356 C15.969527,2.0191356 15.9185387,2.05992622 15.9185387,2.15170511 L15.9185387,4.52775862 C15.9185387,4.52775862 14.7356108,4.81329294 14.6540296,4.83368826 C14.5724483,4.85408356 14.5112624,4.9356648 14.5112624,5.01724603 L14.5112624,6.5061036 C14.5112624,6.6182778 14.5928437,6.69985903 14.7050178,6.69985903 L15.9185387,6.69985903 L15.9185387,10.2894334 C15.9185387,12.9510213 17.7847095,13.2161603 19.0492187,13.2161603 C19.630485,13.2161603 20.3137278,13.0326025 20.425902,12.9918119 C20.4972856,12.9714166 20.5380763,12.900033 20.5380762,12.8184518 L20.5380762,11.1766294 C20.5380762,11.0746528 20.4462974,10.9828739 20.3443208,10.9828739 C20.2423443,10.9828739 19.9874029,11.0236646 19.7120662,11.0236646 C18.8554632,11.0236646 18.5699289,10.625956 18.5699289,10.1160733 L18.5699289,6.71005669 L20.3035302,6.71005669 C20.4055067,6.71005669 20.4972856,6.62847545 20.4972856,6.51630125 L20.4972856,4.63993282 C20.487088,4.53795627 20.4055067,4.44617739 20.3035302,4.44617737 Z" id="Shape"></path>
                    </g>
                </g>
            </g>
        </g>
    </g>
</svg>