<?xml version="1.0" encoding="UTF-8"?>
<svg width="152px" height="33px" viewBox="0 0 152 33" version="1.1" xmlns="http://www.w3.org/2000/svg" xmlns:xlink="http://www.w3.org/1999/xlink">
    <!-- Generator: Sketch 52.5 (67469) - http://www.bohemiancoding.com/sketch -->
    <title>security scan-fill</title>
    <desc>Created with Sketch.</desc>
    <defs>
        <linearGradient x1="50%" y1="0%" x2="50%" y2="100%" id="linearGradient-1">
            <stop stop-color="#FFFFFF" offset="0%"></stop>
            <stop stop-color="#FFFFFF" stop-opacity="0.81" offset="39.3063584%"></stop>
            <stop stop-color="#FFFFFF" stop-opacity="0.23" offset="67.5103866%"></stop>
            <stop stop-color="#FFFFFF" stop-opacity="0" offset="100%"></stop>
        </linearGradient>
        <path d="M0,14 L31,14" id="path-2"></path>
        <filter x="-11.3%" y="-200.0%" width="122.6%" height="900.0%" filterUnits="objectBoundingBox" id="filter-3">
            <feMorphology radius="0.5" operator="dilate" in="SourceAlpha" result="shadowSpreadOuter1"></feMorphology>
            <feOffset dx="0" dy="3" in="shadowSpreadOuter1" result="shadowOffsetOuter1"></feOffset>
            <feMorphology radius="1" operator="erode" in="SourceAlpha" result="shadowInner"></feMorphology>
            <feOffset dx="0" dy="3" in="shadowInner" result="shadowInner"></feOffset>
            <feComposite in="shadowOffsetOuter1" in2="shadowInner" operator="out" result="shadowOffsetOuter1"></feComposite>
            <feGaussianBlur stdDeviation="0.5" in="shadowOffsetOuter1" result="shadowBlurOuter1"></feGaussianBlur>
            <feColorMatrix values="0 0 0 0 0.314369351   0 0 0 0 0.8883757   0 0 0 0 0.759899616  0 0 0 1 0" type="matrix" in="shadowBlurOuter1"></feColorMatrix>
        </filter>
    </defs>
    <g id="Page-1" stroke="none" stroke-width="1" fill="none" fill-rule="evenodd">
        <g id="hydroscan-1.0-992px" transform="translate(-56.000000, -15.000000)">
            <g id="security-scan-fill" transform="translate(58.000000, 15.000000)">
                <path d="M20.6980212,10.6468774 L14.1800488,10.6468774 L14.1800488,1 L13.1876931,1 C11.9923557,1 11,2.06090979 11,3.39321512 L11,20.9599076 C11,22.2675406 11.9698021,23.3531226 13.1876931,23.3531226 L14.1800488,23.3531226 L15.488154,23.3531226 L15.488154,19.8743253 L14.1800488,19.8743253 L14.1800488,14.1256747 L19.7056654,14.1256747 L19.7056654,33 L20.6980212,33 C21.8933586,33 22.8857143,31.9390903 22.8857143,30.6067849 L22.8857143,13.0400926 C22.8857143,11.7077872 21.915912,10.6468774 20.6980212,10.6468774 Z" id="Path" fill="url(#linearGradient-1)" fill-rule="nonzero"></path>
                <g id="Line" stroke-linecap="round" stroke-linejoin="round" fill-rule="nonzero">
                    <use fill="black" fill-opacity="1" filter="url(#filter-3)" xlink:href="#path-2"></use>
                    <use stroke-opacity="0" stroke="#FFFFFF" stroke-width="1" xlink:href="#path-2"></use>
                </g>
                <g id="gesture_scaning-identity" fill="#72D0BB" fill-rule="nonzero">
                    <path d="M30.3118169,23.5252732 C29.9052596,23.5252732 29.6342213,23.7963115 29.6342213,24.2028689 L29.6342213,29.2848361 C29.6342213,29.4881148 29.4987022,29.6236339 29.2954235,29.6236339 L24.2134563,29.6236339 C23.8068989,29.6236339 23.5358607,29.8946721 23.5358607,30.3012295 C23.5358607,30.7077869 23.8068989,30.9788251 24.2134563,30.9788251 L29.2954235,30.9788251 C30.2440574,30.9788251 30.9894125,30.2334699 30.9894126,29.2848361 L30.9894126,24.2028689 C30.9894126,23.7963115 30.7183743,23.5252732 30.3118169,23.5252732 Z M29.2954235,0.012704918 L24.2134563,0.012704918 C23.8068989,0.012704918 23.5358607,0.283743159 23.5358607,0.690300536 C23.5358607,1.09685791 23.8068989,1.36789615 24.2134563,1.36789619 L29.2954235,1.36789619 C29.4987022,1.36789619 29.6342213,1.50341532 29.6342213,1.70669398 L29.6342213,6.78866119 C29.6342213,7.19521857 29.9052596,7.46625681 30.3118169,7.46625684 C30.7183743,7.46625687 30.9894125,7.1952186 30.9894126,6.78866119 L30.9894126,1.70669398 C30.9894126,0.758060088 30.2440574,0.012704918 29.2954235,0.012704918 Z M0.700887989,7.46625684 C1.10744537,7.46625684 1.37848361,7.1952186 1.37848361,6.78866119 L1.37848361,1.70669398 C1.37848361,1.50341529 1.51400274,1.36789615 1.71728143,1.36789619 L6.79924864,1.36789619 C7.20580602,1.36789619 7.47684426,1.09685794 7.47684426,0.690300536 C7.47684426,0.283743127 7.20580602,0.012704918 6.79924864,0.012704918 L1.71728143,0.012704918 C0.768647541,0.012704918 0.0232923709,0.75806012 0.0232923391,1.70669398 L0.0232923391,6.78866119 C0.0232923391,7.19521857 0.29433058,7.46625681 0.700887989,7.46625684 Z M6.79924864,29.6236339 L1.71728143,29.6236339 C1.51400274,29.6236339 1.37848361,29.4881148 1.37848361,29.2848361 L1.37848361,24.2028689 C1.37848361,23.7963115 1.10744537,23.5252732 0.700887989,23.5252732 C0.294330612,23.5252732 0.0232923709,23.7963115 0.0232923391,24.2028689 L0.0232923391,29.2848361 C0.0232923391,30.23347 0.768647541,30.9788251 1.71728143,30.9788251 L6.79924864,30.9788251 C7.20580602,30.9788251 7.47684426,30.7077869 7.47684426,30.3012295 C7.47684426,29.8946721 7.20580602,29.6236339 6.79924864,29.6236339 Z" id="Shape"></path>
                </g>
                <text id="HydroScan" font-family="ArialRoundedMTBold, Arial Rounded MT Bold" font-size="21" font-weight="normal" letter-spacing="-0.105">
                    <tspan x="39" y="23" fill="#FFFFFF">Hydro</tspan>
                    <tspan x="99.7420898" y="23" fill="#72D0BB">Scan</tspan>
                </text>
            </g>
        </g>
    </g>
</svg>