<?xml version="1.0" encoding="UTF-8"?>
<svg width="220px" height="35px" viewBox="0 0 220 35" version="1.1" xmlns="http://www.w3.org/2000/svg" xmlns:xlink="http://www.w3.org/1999/xlink">
    <!-- Generator: Sketch 52.5 (67469) - http://www.bohemiancoding.com/sketch -->
    <title>Group 3</title>
    <desc>Created with Sketch.</desc>
    <g id="Page-1" stroke="none" stroke-width="1" fill="none" fill-rule="evenodd">
        <g id="hydroscan-1.0" transform="translate(-29.000000, -31.000000)" fill="#FFFFFF">
            <g id="header">
                <g id="Group-3" transform="translate(29.000000, 21.000000)">
                    <text id="SCAN" font-family="Chalkduster" font-size="30" font-weight="normal" letter-spacing="-0.15">
                        <tspan x="137" y="36">SCAN</tspan>
                    </text>
                    <g id="hydro-new-dark" transform="translate(0.000000, 10.000000)">
                        <g id="Group" transform="translate(56.425532, 0.000000)" fill-rule="nonzero">
                            <path d="M13.7816206,26.3965297 L10.1923042,26.3965297 L10.1923042,14.3276183 C10.1923042,13.4511051 10.0229968,13.0802727 8.87170665,13.0802727 C7.72041647,13.0802727 6.33209596,13.4173931 5.04535989,13.9904978 L5.04535989,26.4302417 L1.45604346,26.4302417 C0.744952467,26.4302417 0.203168855,25.857137 0.203168855,25.182896 L0.203168855,1.55075398 C0.203168855,0.842801074 0.778813942,0.303408387 1.45604346,0.303408387 L5.07922137,0.303408387 L5.07922137,10.4170213 L5.35011317,10.4170213 C7.99130829,9.00111547 9.21032142,8.66399504 10.8018108,8.66399504 C13.7816206,8.66399504 15.0344953,10.0799008 15.0344953,13.2488329 L15.0344953,25.1491841 C15.0683567,25.8234249 14.4927117,26.3965297 13.7816206,26.3965297 Z M44.3923947,26.3965297 L44.3923947,25.0817599 L44.121503,25.0817599 C42.1575374,26.3628176 41.0401086,26.666226 39.6179266,26.666226 C35.8593029,26.666226 33.4889995,24.5760794 33.4889995,17.7999587 C33.4889995,11.2598223 36.5026708,8.63028299 40.2612947,8.63028299 C41.6157538,8.63028299 42.8347669,8.83255526 44.121503,9.47308408 L44.121503,0.303408387 L47.7108193,0.303408387 C48.4219104,0.303408387 48.963694,0.876513118 48.963694,1.55075398 L48.963694,25.115472 C48.963694,25.8234249 48.388049,26.3628176 47.7108193,26.3628176 L44.3923947,26.3628176 L44.3923947,26.3965297 Z M44.121503,13.0128486 C43.2749661,12.7094402 42.3268447,12.574592 41.6496151,12.574592 C39.854957,12.574592 38.6359438,13.2151208 38.6359438,17.9010948 C38.6359438,21.6431316 39.4824808,22.6207809 41.209416,22.6207809 C42.0898145,22.6207809 42.8686283,22.3173724 44.121503,21.5419955 L44.121503,13.0128486 Z M61.5940244,13.6196654 C61.0522408,13.4173931 60.3750113,13.349969 59.7993662,13.349969 C58.6819376,13.349969 57.8354007,13.6196654 56.582526,14.3613303 L56.582526,26.3965297 L52.9932096,26.3965297 C52.2821186,26.3965297 51.740335,25.8234249 51.740335,25.1491841 L51.740335,8.96740343 L56.582526,8.96740343 L56.582526,10.6192935 L56.8534179,10.6192935 C58.4449072,9.03482751 59.3253055,8.66399504 60.4088728,8.66399504 C60.8829335,8.66399504 61.3231327,8.76513118 61.7971934,8.89997934 L61.5940244,13.6196654 Z M71.1429606,26.699938 C66.3346311,26.699938 63.0162064,24.1715348 63.0162064,17.6988225 C63.0162064,11.2935344 66.3346311,8.66399504 71.2445451,8.66399504 C75.9851516,8.66399504 79.3712993,11.0912621 79.3712993,17.6988225 C79.3712993,24.1715348 75.9174287,26.699938 71.1429606,26.699938 Z M71.2106835,12.5071679 C69.1451336,12.5071679 68.1631508,13.1814088 68.1631508,17.6988225 C68.1631508,22.1825242 69.178995,22.8567652 71.1429606,22.8567652 C73.2085106,22.8567652 74.1904934,22.1825242 74.1904934,17.6988225 C74.1904934,13.1814088 73.1746491,12.5071679 71.2106835,12.5071679 Z M27.2246266,26.4639537 L33.0488004,8.96740343 L28.2066094,8.96740343 L24.8204617,19.2158645 L21.4004527,8.96740343 L16.6259847,8.96740343 L22.4162969,26.4639537 L19.7751018,34.4537079 C22.6533273,34.4537079 25.1590765,32.8692419 25.9378905,30.5431109 L27.2246266,26.4639537 Z" id="Shape"></path>
                        </g>
                        <path d="M19.1187541,25.6670456 L3.15762229,25.6670456 L3.15762229,11.8837096 L11.1814433,11.8837096 L11.1814433,8.76920578 L2.20601009,8.76920578 C1.05974995,8.76920578 0.108137749,9.719019 0.108137749,10.9118077 L0.108137749,26.6389475 C0.108137749,27.8096475 1.03812239,28.7815495 2.20601009,28.7815495 L19.5296775,28.7815495 L19.5296775,25.6670456 C19.3566572,25.6670456 19.2485194,25.6670456 19.1620092,25.6670456 L19.1187541,25.6670456 Z M39.7081816,0.154620757 L22.3845142,0.154620757 L22.3845142,3.26912457 C22.5575345,3.26912457 22.6656723,3.26912457 22.7521825,3.26912457 L22.7954376,3.26912457 L38.7565695,3.26912457 L38.7565695,17.0524606 L30.7327484,17.0524606 L30.7327484,20.1669644 L39.7081816,20.1669644 C40.8544418,20.1669644 41.8060539,19.2171511 41.8060539,18.0243626 L41.8060539,2.29722267 C41.8060539,1.10443398 40.8544418,0.154620757 39.7081816,0.154620757 Z" id="Shape" fill-rule="nonzero"></path>
                        <path d="M24.5905243,8.79129446 L18.3401624,8.79129446 L18.3401624,0.154620757 L17.3885501,0.154620757 C16.24229,0.154620757 15.2906778,1.10443398 15.2906778,2.29722267 L15.2906778,18.0243626 C15.2906778,19.1950626 16.2206624,20.1669644 17.3885501,20.1669644 L18.3401624,20.1669644 L19.5945603,20.1669644 L19.5945603,17.0524606 L18.3401624,17.0524606 L18.3401624,11.9057983 L23.6389121,11.9057983 L23.6389121,28.8036381 L24.5905243,28.8036381 C25.7367844,28.8036381 26.6883966,27.8538249 26.6883966,26.6610362 L26.6883966,10.9338964 C26.6883966,9.74110769 25.7584119,8.79129446 24.5905243,8.79129446 Z" id="Path"></path>
                    </g>
                </g>
            </g>
        </g>
    </g>
</svg>