<?xml version="1.0" encoding="UTF-8"?>
<svg width="18px" height="17px" viewBox="0 0 18 17" version="1.1" xmlns="http://www.w3.org/2000/svg" xmlns:xlink="http://www.w3.org/1999/xlink">
    <!-- Generator: Sketch 52.5 (67469) - http://www.bohemiancoding.com/sketch -->
    <title>交易所</title>
    <desc>Created with Sketch.</desc>
    <g id="Page-1" stroke="none" stroke-width="1" fill="none" fill-rule="evenodd">
        <g id="Relayer---Detail" transform="translate(-291.000000, -43.000000)" fill-rule="nonzero" stroke="#F8F9FA">
            <g id="header">
                <g id="Group-14" transform="translate(292.000000, 44.000000)">
                    <g id="交易所">
                        <path d="M15.9185113,6.04270323 C15.844858,6.14613124 15.7273262,6.20254652 15.6082272,6.20254652 C15.5314398,6.20254652 15.4546523,6.17904016 15.3872674,6.13202742 L7.99686582,0.852497551 L2.94142997,4.46464251 L2.94142997,14.1398629 L13.0538688,14.1398629 L13.0538688,6.89676787 C13.0538688,6.68677767 13.2246817,6.51596474 13.4346719,6.51596474 C13.6446621,6.51596474 13.815475,6.68677767 13.815475,6.89676787 L13.815475,14.520666 C13.815475,14.7306562 13.6446621,14.9014691 13.4346719,14.9014691 L2.56062684,14.9014691 C2.35063663,14.9014691 2.1798237,14.7306562 2.1798237,14.520666 L2.1798237,5.00842311 L0.606464251,6.13202742 C0.435651322,6.25426053 0.197453477,6.21508325 0.0752203722,6.04270323 C-0.0470127326,5.8718903 -0.00783545544,5.63369246 0.164544564,5.51145935 L7.77590597,0.0752203722 C7.90754163,-0.018805093 8.08619001,-0.018805093 8.21782566,0.0752203722 L15.8291871,5.51145935 C16.0015671,5.63525955 16.0407444,5.8718903 15.9185113,6.04270323 Z M11.5572968,4.48814887 C11.4209598,4.32830558 11.1796278,4.30950049 11.0213516,4.44583741 L8.70989226,6.42037218 L7.50166503,5.04916748 C7.37629775,4.90656219 7.16317336,4.87835455 7.00489716,4.98334966 L4.52419197,6.63663075 C4.34867777,6.75259549 4.30166503,6.98922625 4.41919687,7.16474045 C4.49285015,7.27443683 4.61351616,7.33398629 4.73574927,7.33398629 C4.80783546,7.33398629 4.88148874,7.3136141 4.94573947,7.26973555 L7.14906954,5.8013712 L8.38550441,7.20548482 C8.52340842,7.36062684 8.76003918,7.37786484 8.91831538,7.243095 L11.5149853,5.02409403 C11.6748286,4.8877571 11.6936337,4.64799216 11.5572968,4.48814887 Z M5.20117532,9.08442703 L5.20117532,12.7764936 C5.20117532,12.9864838 5.37198825,13.1572968 5.58197845,13.1572968 C5.79196866,13.1572968 5.96278159,12.9864838 5.96278159,12.7764936 L5.96278159,9.08442703 C5.96278159,8.87443683 5.79196866,8.7036239 5.58197845,8.7036239 C5.37198825,8.7036239 5.20117532,8.87443683 5.20117532,9.08442703 Z M7.61606268,9.08442703 L7.61606268,12.7764936 C7.61606268,12.9864838 7.78687561,13.1572968 7.99686582,13.1572968 C8.20685602,13.1572968 8.37766895,12.9864838 8.37766895,12.7764936 L8.37766895,9.08442703 C8.37766895,8.87443683 8.20685602,8.7036239 7.99686582,8.7036239 C7.78687561,8.7036239 7.61606268,8.87443683 7.61606268,9.08442703 Z M10.2440744,8.54064643 L10.2440744,12.7764936 C10.2440744,12.9864838 10.4148874,13.1572968 10.6248776,13.1572968 C10.8348678,13.1572968 11.0056807,12.9864838 11.0056807,12.7764936 L11.0056807,8.54064643 C11.0056807,8.33065622 10.8348678,8.15984329 10.6248776,8.15984329 C10.4148874,8.15984329 10.2440744,8.33065622 10.2440744,8.54064643 Z" id="Shape"></path>
                    </g>
                </g>
            </g>
        </g>
    </g>
</svg>