<?xml version="1.0" encoding="UTF-8"?>
<svg width="15px" height="12px" viewBox="0 0 15 12" version="1.1" xmlns="http://www.w3.org/2000/svg" xmlns:xlink="http://www.w3.org/1999/xlink">
    <!-- Generator: Sketch 52.5 (67469) - http://www.bohemiancoding.com/sketch -->
    <title>167 coins</title>
    <desc>Created with Sketch.</desc>
    <g id="Page-1" stroke="none" stroke-width="1" fill="none" fill-rule="evenodd">
        <g id="Relayer---Detail" transform="translate(-405.000000, -46.000000)" fill="#F8F9FA" fill-rule="nonzero">
            <g id="Group-5" transform="translate(405.000000, 44.000000)">
                <g id="167-coins" transform="translate(0.000000, 2.000000)">
                    <path d="M14.8352374,5.1886022 C14.9301824,5.35908132 14.9812418,5.53546813 14.9812418,5.71607473 C14.9812418,7.20185934 11.6277824,8.40618462 7.49113187,8.40618462 C3.35448132,8.40618462 0.00102197802,7.20185934 0.00102197802,5.71607473 C0.00102197802,5.53546813 0.0529252747,5.35908132 0.147026374,5.1886022 C0.830208791,6.42162198 3.85747912,7.35123956 7.49113187,7.35123956 C11.1247846,7.35123956 14.1528989,6.42162198 14.8352374,5.1886022 Z M7.49113187,10.2346154 C3.85747912,10.2346154 0.830208791,9.3049978 0.147026374,8.07197802 C0.0541322134,8.23245724 0.00386841174,8.41404612 0.00102197802,8.59945055 C0.00102197802,10.0852352 3.35448132,11.2895604 7.49113187,11.2895604 C11.6277824,11.2895604 14.9812418,10.0852352 14.9812418,8.59945055 C14.9812418,8.41884396 14.9301824,8.24245714 14.8352374,8.07197802 C14.1528989,9.3049978 11.1247846,10.2346154 7.49113187,10.2346154 Z M7.49113187,0.00164835165 C3.35448132,0.00164835165 0.00102197802,1.20597363 0.00102197802,2.69175824 C0.00102197802,4.17754286 3.35448132,5.38186813 7.49113187,5.38186813 C11.6277824,5.38186813 14.9812418,4.17754286 14.9812418,2.69175824 C14.9812418,1.20597363 11.6273604,0.00164835165 7.49113187,0.00164835165 Z" id="Shape"></path>
                </g>
            </g>
        </g>
    </g>
</svg>