<?xml version="1.0" encoding="UTF-8"?>
<svg width="15px" height="15px" viewBox="0 0 15 15" version="1.1" xmlns="http://www.w3.org/2000/svg" xmlns:xlink="http://www.w3.org/1999/xlink">
    <!-- Generator: Sketch 52.5 (67469) - http://www.bohemiancoding.com/sketch -->
    <title>exchange</title>
    <desc>Created with Sketch.</desc>
    <g id="Page-1" stroke="none" stroke-width="1" fill="none" fill-rule="evenodd">
        <g id="Relayer---Detail" transform="translate(-505.000000, -45.000000)" fill="#F8F9FA" fill-rule="nonzero">
            <g id="header">
                <g id="Group-4" transform="translate(505.000000, 44.000000)">
                    <g id="exchange" transform="translate(0.000000, 1.000000)">
                        <path d="M7.49449204,0.00367197062 C3.35618115,0.00367197062 0,3.35985312 0,7.49816401 C0,11.6364749 3.35434517,14.9926561 7.49449204,14.9926561 C11.6346389,14.9926561 14.9889841,11.6383109 14.9889841,7.49816401 C14.9889841,3.35801714 11.6328029,0.00367197062 7.49449204,0.00367197062 Z M11.0948592,9.55446756 C10.8194614,9.78580171 10.4834761,9.96756426 10.1860465,10.1695226 C9.6370869,10.5403917 9.08812729,10.9130967 8.53916769,11.2839657 C8.3996328,11.377601 8.2619339,11.4840881 8.11689106,11.5685435 C7.80477356,11.753978 7.35862913,11.5281518 7.49449204,11.127907 C7.57894737,10.880049 7.96817625,10.7093023 8.16646267,10.5752754 C8.63096695,10.2613219 9.09730722,9.94553244 9.56181151,9.63157895 L8.87331701,9.63157895 C7.27784578,9.63157895 5.68237454,9.64075887 4.08873929,9.63157895 C3.55997552,9.62239902 3.60587515,8.87148103 4.10709914,8.83659731 C4.22276622,8.82741738 4.34210526,8.83659731 4.45777234,8.83659731 L10.0979192,8.83659731 C10.3476132,8.83659731 10.6101591,8.81456548 10.8598531,8.83659731 C11.2399021,8.86964504 11.3959608,9.30110159 11.0948592,9.55446756 Z M10.8580171,6.19094247 C10.7423501,6.2001224 10.623011,6.19094247 10.5073439,6.19094247 L4.86719706,6.19094247 C4.61750306,6.19094247 4.35495716,6.2129743 4.10526316,6.19094247 C3.7252142,6.15789474 3.56915545,5.72643819 3.87025704,5.47123623 C4.14565483,5.23990208 4.48164015,5.05813953 4.77906977,4.85618115 C5.32802938,4.48531212 5.87698898,4.1126071 6.42594859,3.74173807 C6.56548348,3.64810282 6.70318237,3.54161567 6.84822521,3.45716034 C7.16034272,3.27172583 7.60648715,3.49755202 7.47062424,3.89779682 C7.38616891,4.14565483 6.99694002,4.31640147 6.79865361,4.4504284 C6.33414933,4.76438188 5.86780906,5.08017136 5.40330477,5.39412485 L6.09179927,5.39412485 C7.6872705,5.39412485 9.28274174,5.38494492 10.876377,5.39412485 C11.4051408,5.40514076 11.3592411,6.15422277 10.8580171,6.19094247 Z" id="Shape"></path>
                    </g>
                </g>
            </g>
        </g>
    </g>
</svg>