<?xml version="1.0" encoding="UTF-8"?>
<svg width="17px" height="17px" viewBox="0 0 17 17" version="1.1" xmlns="http://www.w3.org/2000/svg" xmlns:xlink="http://www.w3.org/1999/xlink">
    <!-- Generator: Sketch 52.5 (67469) - http://www.bohemiancoding.com/sketch -->
    <title>memberV3</title>
    <desc>Created with Sketch.</desc>
    <g id="Page-1" stroke="none" stroke-width="1" fill="none" fill-rule="evenodd">
        <g id="Trader---Detail" transform="translate(-342.000000, -594.000000)" fill="#3A506B" fill-rule="nonzero">
            <g id="Group-7-Copy" transform="translate(205.000000, 373.000000)">
                <g id="Group-10" transform="translate(137.000000, 144.000000)">
                    <g id="memberV3" transform="translate(0.000000, 77.000000)">
                        <path d="M14.16661,0 L2.833305,0 C1.268625,0 0,1.268625 0,2.83339 L0,14.166695 C0,15.731375 1.268625,17 2.833305,17 L14.16661,17 C15.73129,17 17,15.731375 17,14.166695 L17,2.83339 C17,1.268625 15.73129,0 14.16661,0 Z M14.176045,9.49059 L14.176045,11.509765 L14.175875,11.509765 L14.175875,13.51636 L10.83699,13.511515 L10.83699,12.84367 L13.50803,12.84367 L13.50803,11.50883 L10.83716,11.505005 L10.83716,10.83716 L13.5082,10.83716 L13.5082,9.490675 L10.83716,9.490675 L10.83716,8.83388 L13.5082,8.83388 L14.176045,8.83388 L14.176045,9.49059 Z M4.827235,14.17613 L2.15611,14.17613 L2.15611,4.88988 L1.488435,4.879425 L1.488435,4.15939 L2.82387,4.15939 L4.159475,4.15939 L4.159475,10.90108 L10.837245,4.15939 L14.56543,4.15939 L4.827235,14.17613 Z" id="Shape"></path>
                    </g>
                </g>
            </g>
        </g>
    </g>
</svg>