<?xml version="1.0" encoding="UTF-8"?>
<svg width="17px" height="17px" viewBox="0 0 17 17" version="1.1" xmlns="http://www.w3.org/2000/svg" xmlns:xlink="http://www.w3.org/1999/xlink">
    <!-- Generator: Sketch 52.5 (67469) - http://www.bohemiancoding.com/sketch -->
    <title>memberV4</title>
    <desc>Created with Sketch.</desc>
    <g id="Page-1" stroke="none" stroke-width="1" fill="none" fill-rule="evenodd">
        <g id="Trader---Detail" transform="translate(-342.000000, -556.000000)" fill="#1C2541" fill-rule="nonzero">
            <g id="Group-7-Copy" transform="translate(205.000000, 373.000000)">
                <g id="Group-10" transform="translate(137.000000, 144.000000)">
                    <g id="memberV4" transform="translate(0.000000, 39.000000)">
                        <path d="M14.1666383,0 L2.83336166,0 C1.26869732,0 8.5e-05,1.26861232 8.5e-05,2.83336166 L8.5e-05,14.1665533 C8.5e-05,15.7311327 1.26869732,17 2.83336166,17 L14.1665533,17 C15.7312177,17 16.99983,15.7311327 16.99983,14.1665533 L16.99983,2.83336166 C16.999915,1.26861232 15.7313027,0 14.1666383,0 Z M14.1760732,13.5081499 L13.5082349,13.5081499 L13.5082349,11.50506 L11.50506,11.50506 L10.8372216,11.50506 L10.8372216,10.8371366 L10.8372216,8.83396166 L11.50506,8.83396166 L11.50506,10.8371366 L13.5082349,10.8371366 L13.5082349,8.83396166 L14.1760732,8.83396166 L14.1760732,13.5081499 Z M4.82727172,14.1759882 L2.15617343,14.1759882 L2.15617343,4.88983111 L1.48842011,4.87937621 L1.48842011,4.15943341 L2.82392676,4.15943341 L4.15951841,4.15943341 L4.15951841,10.900971 L10.8371366,4.15943341 L14.5652844,4.15943341 L4.82727172,14.1759882 Z" id="Shape"></path>
                    </g>
                </g>
            </g>
        </g>
    </g>
</svg>